<?xml version="1.0" encoding="UTF-8"?>
<!DOCTYPE svg PUBLIC "-//W3C//DTD SVG 1.1//EN" "http://www.w3.org/Graphics/SVG/1.1/DTD/svg11.dtd">
<!-- Creator: CorelDRAW 2021.5 -->
<svg xmlns="http://www.w3.org/2000/svg" xml:space="preserve" width="3.19334in" height="1.51859in" version="1.1" style="shape-rendering:geometricPrecision; text-rendering:geometricPrecision; image-rendering:optimizeQuality; fill-rule:evenodd; clip-rule:evenodd"
viewBox="0 0 3193.34 1518.59"
 xmlns:xlink="http://www.w3.org/1999/xlink"
 xmlns:xodm="http://www.corel.com/coreldraw/odm/2003">
 <defs>
  <style type="text/css">
   <![CDATA[
    .fil0 {fill:white}
   ]]>
  </style>
 </defs>
 <g id="Layer_x0020_1">
  <metadata id="CorelCorpID_0Corel-Layer"/>
  <path class="fil0" d="M-0 1485.23l0 -39.59 48.38 0c42.15,0 74.78,-6.6 97.14,-20.16 22.72,-13.2 39.22,-31.16 49.85,-54.25 6.6,-15.03 9.89,-60.11 9.89,-135.26l0 -320.4 350.05 0 0 332.5c0,60.11 2.93,96.77 8.43,110.33 5.86,13.56 15.39,24.19 28.96,31.16 19.43,11 47.28,16.13 83.94,16.13 119.49,0 210.76,-40.69 273.81,-122.43 66.72,-85.84 107.49,-208.29 122.31,-367.69l380.59 0c-8.22,44.76 -20.2,87.65 -35.92,128.7 -32.99,86.51 -75.51,157.62 -127.56,213.7 -52.41,56.45 -112.53,101.54 -181.07,135.62 -68.54,33.72 -152.11,60.11 -250.71,78.81 -43.62,8.43 -112.53,12.83 -206.37,12.83l-651.71 0zm205.26 -882.23l0 -324.8c0,-74.41 -4.03,-120.96 -12.09,-139.65 -7.7,-18.7 -23.46,-34.82 -47.65,-48.75 -23.82,-13.93 -56.45,-20.89 -97.14,-20.89l-48.38 0 0 -39.95 651.71 0c174.11,0 314.13,23.83 420.06,71.11 129.39,57.92 227.99,145.52 294.7,262.81 42.22,74.06 71.07,154.07 86.67,240.13l-382.96 0c-12.73,-111.04 -39.08,-204.61 -79.05,-280.81 -46.56,-87.24 -106.3,-146.61 -179.24,-178.14 -51.69,-22.36 -137.09,-32.99 -256.58,-32.26l0 491.2 -350.05 0zm2217.57 -594.2c232.02,-8.8 420.43,59.01 565.58,202.7 110.19,109.64 178.55,240.09 204.92,391.5l-380.39 0c-7.77,-110.78 -23.93,-198.77 -48.5,-263.95 -35.92,-95.67 -81.37,-163.11 -137.09,-202.7 -55.35,-39.22 -119.13,-59.02 -191.33,-59.02 -133.42,0 -234.59,68.18 -304.23,204.17 -41.12,81.44 -67.26,188.57 -78.43,321.5l-381.24 0c26.91,-151.07 96.24,-281.39 207.85,-390.77 147.35,-144.42 328.05,-212.23 542.85,-203.43zm767.69 906.78c-22.95,118.54 -71.82,226.41 -146.76,323.7 -143.32,186.2 -345.65,279.31 -607,279.31 -261.71,0 -464.41,-88.7 -607.73,-266.48 -79.76,-99.18 -131.52,-211.36 -155.04,-336.53l379.34 0c14.86,172.27 56.41,304.85 124.65,397.74 60.84,83.2 146.25,124.63 255.84,124.63 73.67,0 135.26,-17.96 184.74,-53.52 62.68,-45.82 111.8,-119.13 146.98,-219.93 24.05,-68.63 39.87,-151.65 47.49,-248.93l377.48 0z"/>
 </g>
</svg>
